<?xml version="1.0" encoding="UTF-8" standalone="no"?>
<!-- Generator: Adobe Illustrator 16.0.4, SVG Export Plug-In . SVG Version: 6.00 Build 0)  -->

<svg
   xmlns:dc="http://purl.org/dc/elements/1.1/"
   xmlns:cc="http://creativecommons.org/ns#"
   xmlns:rdf="http://www.w3.org/1999/02/22-rdf-syntax-ns#"
   xmlns:svg="http://www.w3.org/2000/svg"
   xmlns="http://www.w3.org/2000/svg"
   xmlns:sodipodi="http://sodipodi.sourceforge.net/DTD/sodipodi-0.dtd"
   xmlns:inkscape="http://www.inkscape.org/namespaces/inkscape"
   version="1.1"
   id="Ebene_1"
   x="0px"
   y="0px"
   width="489px"
   height="461px"
   viewBox="0 0 489 461"
   enable-background="new 0 0 489 461"
   xml:space="preserve"
   inkscape:version="0.48.5 r10040"
   sodipodi:docname="h4c_logo_big_lab3.svg"><metadata
     id="metadata53"><rdf:RDF><cc:Work
         rdf:about=""><dc:format>image/svg+xml</dc:format><dc:type
           rdf:resource="http://purl.org/dc/dcmitype/StillImage" /></cc:Work></rdf:RDF></metadata><defs
     id="defs51" /><sodipodi:namedview
     pagecolor="#ffffff"
     bordercolor="#666666"
     borderopacity="1"
     objecttolerance="10"
     gridtolerance="10"
     guidetolerance="10"
     inkscape:pageopacity="0"
     inkscape:pageshadow="2"
     inkscape:window-width="833"
     inkscape:window-height="806"
     id="namedview49"
     showgrid="false"
     inkscape:zoom="0.51193059"
     inkscape:cx="244.5"
     inkscape:cy="230.5"
     inkscape:window-x="0"
     inkscape:window-y="0"
     inkscape:window-maximized="0"
     inkscape:current-layer="Ebene_1" /><polygon
     style="fill:#f0c755"
     id="polygon5"
     points="29.894,167.209 0.263,167.209 42.256,249.62 42.256,306.915 69.335,306.915 69.335,249.62 111.329,167.209 81.698,167.209 55.991,223.524 " /><g
     id="g7"><g
       id="g9"><path
         style="fill:#f0c755"
         inkscape:connector-curvature="0"
         id="path11"
         d="m 184.455,197.817 c -3.924,-4.515 -10.008,-7.456 -17.463,-7.456 -7.46,0 -13.735,2.943 -17.661,7.456 -5.296,5.888 -6.671,12.363 -6.671,39.241 0,26.886 1.375,33.361 6.671,39.247 3.925,4.517 10.2,7.457 17.661,7.457 7.455,0 13.539,-2.941 17.463,-7.457 5.299,-5.886 6.869,-12.361 6.869,-39.247 0.002,-26.877 -1.57,-33.353 -6.869,-39.241 m 20.213,94.974 c -9.811,9.81 -21.779,15.301 -37.676,15.301 -15.894,0 -28.061,-5.491 -37.869,-15.301 -14.129,-14.13 -13.737,-31.594 -13.737,-55.731 0,-24.132 -0.393,-41.595 13.737,-55.724 9.809,-9.812 21.975,-15.31 37.869,-15.31 15.896,0 27.865,5.496 37.676,15.31 14.127,14.129 13.929,31.592 13.929,55.724 0,24.137 0.198,41.601 -13.929,55.731" /><path
         style="fill:#f0c755"
         inkscape:connector-curvature="0"
         id="path13"
         d="m 291.103,308.094 c -28.649,0 -51.407,-19.428 -51.407,-49.053 v -91.834 h 27.272 v 90.85 c 0,16.091 9.42,25.707 24.135,25.707 14.718,0 24.333,-9.616 24.333,-25.707 v -90.85 h 27.077 v 91.833 c 0.001,29.626 -22.758,49.054 -51.41,49.054" /><path
         style="fill:#f0c755"
         inkscape:connector-curvature="0"
         id="path15"
         d="m 416.703,191.537 h -25.704 v 36.891 h 25.704 c 11.971,0 19.815,-7.653 19.815,-18.442 0.001,-10.797 -7.844,-18.449 -19.815,-18.449 m 21.189,115.381 -27.271,-55.727 h -19.623 v 55.727 H 363.722 V 167.209 h 54.748 c 28.449,0 45.326,19.428 45.326,42.776 0,19.619 -11.97,31.786 -25.509,36.693 l 31.199,60.239 h -31.594 l 0,0.001 z" /><g
         id="g17"><path
           style="fill:#f0c755"
           inkscape:connector-curvature="0"
           id="path19"
           d="m 65.387,460.698 c -15.305,0 -27.864,-5.493 -37.671,-15.304 -14.131,-14.131 -13.738,-31.593 -13.738,-55.729 0,-24.134 -0.393,-41.597 13.738,-55.728 9.809,-9.809 22.368,-15.307 37.671,-15.307 26.1,0 46.505,14.913 51.41,44.155 H 89.129 c -2.747,-11.188 -9.81,-19.821 -23.548,-19.821 -7.453,0 -13.535,2.744 -17.46,7.26 -5.297,5.887 -6.869,12.562 -6.869,39.439 0,26.885 1.571,33.557 6.869,39.444 3.925,4.513 10.007,7.258 17.46,7.258 13.738,0 20.802,-8.633 23.548,-19.817 h 27.667 c -4.904,29.238 -25.505,44.15 -51.409,44.15" /></g><g
         id="g21"><rect
           style="fill:#f0c755"
           id="rect23"
           height="139.70799"
           width="27.278"
           y="319.81201"
           x="133.343" /></g><g
         id="g25"><polygon
           style="fill:#f0c755"
           id="polygon27"
           points="215.358,459.521 215.358,344.144 178.86,344.144 178.86,319.812 279.133,319.812 279.133,344.144 242.634,344.144 242.634,459.521 " /></g><g
         id="g29"><polygon
           style="fill:#f0c755"
           id="polygon31"
           points="334.578,459.521 334.578,402.225 292.586,319.815 322.217,319.815 348.317,376.127 374.021,319.815 403.651,319.815 361.659,402.225 361.659,459.521 " /></g><path
         style="fill:#0096bf"
         inkscape:connector-curvature="0"
         id="path33"
         d="M 207.021,131.771" /><path
         style="fill:#0096bf"
         inkscape:connector-curvature="0"
         id="path35"
         d="M 225.027,137.219" /></g></g><path
     style="fill:#000000;fill-opacity:1"
     inkscape:connector-curvature="0"
     id="path37"
     d="M 81.252,64.724 V 7.001 h 22.063 V 142.725 H 81.252 V 83.615 H 27.938 v 59.109 H 5.875 V 7.001 h 22.06 l 0.003,57.724 53.314,-10e-4 0,0 z M 75.744,1.49 V 59.213 H 33.447 V 1.49 H 0.367 V 148.234 H 33.446 V 89.125 h 42.297 v 59.109 h 2.755 30.328 V 1.49 H 75.744 z" /><path
     style="fill:#f0c755"
     inkscape:connector-curvature="0"
     id="path39"
     d="M 190.353,4.515 H 168.73 l -53.97,141.234 h 31.358 l 9.034,-20.302 48.597,-0.178 7.207,20.479 h 30.971 L 190.353,4.515 z m 5.951,96.62 -36.188,-0.089 18.229,-49.717 17.959,49.806 z" /><polyline
     style="fill:#000000;fill-opacity:1"
     id="polyline41"
     points="214.097,125.396 214.467,125.448 209.119,125.448 209.119,140.133 191.945,140.133    191.945,120.103 134.703,120.103 134.703,101.545 169.322,8.825 191.607,8.825 156.144,103.8 191.945,103.8 191.945,77.421    209.119,77.421 209.119,103.8 218.56,103.8 218.56,120.103 209.119,120.103 209.119,122.858 209.192,125.533 214.511,125.533    224.07,125.611 224.07,98.292 214.629,98.292 214.629,71.911 186.436,71.911 186.436,98.292 164.082,98.292 199.549,3.316    165.5,3.316 129.191,100.549 129.191,125.611 186.436,125.611 186.436,145.643 214.629,145.643 214.578,125.396  " /><g
     id="g43"
     style="fill:#000000;fill-opacity:1"><path
       style="fill:#000000;fill-opacity:1"
       inkscape:connector-curvature="0"
       id="path45"
       d="m 293.897,146.668 v -2.755 c -14.807,-0.023 -26.673,-5.234 -36.136,-14.661 -6.359,-6.385 -9.551,-13.278 -11.27,-21.54 -1.709,-8.25 -1.818,-17.852 -1.813,-29.066 0,-1.241 0.003,-2.502 0.003,-3.786 0,-1.283 -0.003,-2.545 0,-3.785 -0.004,-11.213 0.102,-20.812 1.811,-29.062 1.719,-8.262 4.909,-15.155 11.27,-21.537 9.463,-9.435 21.329,-14.645 36.136,-14.667 12.675,0.005 23.754,3.603 32.271,10.605 8.511,7.01 14.58,17.483 16.982,31.729 l 2.717,-0.455 v -2.754 h -27.971 v 2.754 l 2.678,-0.656 c -1.479,-6.015 -4.156,-11.543 -8.535,-15.621 -4.367,-4.085 -10.433,-6.533 -17.944,-6.513 -8.203,-0.013 -15.201,3.061 -19.733,8.284 l 2.08,1.808 -2.051,-1.843 c -1.463,1.627 -2.755,3.417 -3.779,5.578 -1.547,3.252 -2.486,7.226 -3.066,12.865 -0.578,5.653 -0.799,13.038 -0.799,23.269 0.008,13.646 0.387,22.222 1.508,28.394 0.563,3.082 1.326,5.585 2.357,7.748 1.024,2.161 2.315,3.95 3.779,5.578 l 2.051,-1.844 -2.08,1.808 c 4.532,5.226 11.525,8.296 19.733,8.289 7.513,0.02 13.577,-2.43 17.944,-6.517 4.379,-4.076 7.058,-9.604 8.535,-15.619 l -2.678,-0.656 v 2.755 h 27.971 v -2.755 l -2.717,-0.455 c -2.397,14.236 -8.516,24.709 -17.057,31.724 -8.544,7.005 -19.624,10.603 -32.197,10.607 l 0,2.752 -10e-4,2.755 c 13.611,0.004 26.039,-3.937 35.693,-11.859 9.662,-7.91 16.438,-19.753 18.996,-35.072 l 0.537,-3.21 h -33.385 l -0.516,2.099 c -1.3,5.293 -3.583,9.783 -6.936,12.897 -3.369,3.104 -7.82,5.02 -14.193,5.041 -6.872,-0.01 -12.171,-2.491 -15.579,-6.392 l -0.022,-0.029 -0.008,-0.007 c -1.208,-1.347 -2.123,-2.633 -2.898,-4.262 -1.16,-2.428 -2.019,-5.744 -2.562,-11.057 -0.543,-5.312 -0.768,-12.562 -0.768,-22.713 -0.006,-13.529 0.408,-21.914 1.418,-27.396 0.502,-2.744 1.138,-4.744 1.912,-6.367 0.776,-1.628 1.691,-2.913 2.899,-4.263 l 0.031,-0.033 c 3.407,-3.901 8.705,-6.379 15.577,-6.393 6.374,0.021 10.824,1.937 14.193,5.042 3.353,3.112 5.637,7.603 6.936,12.897 l 0.517,2.098 h 33.386 l -0.539,-3.208 C 346.027,31.924 339.31,20.079 329.665,12.161 320.032,4.233 307.604,0.294 293.894,0.301 277.762,0.276 264.23,6.176 253.864,16.582 c -7.175,7.15 -10.929,15.307 -12.772,24.32 -1.854,9.026 -1.921,18.934 -1.923,30.175 -0.002,1.245 0,2.507 0,3.784 0,1.278 -0.002,2.539 -0.002,3.787 0.004,11.242 0.072,21.148 1.925,30.177 1.845,9.016 5.599,17.172 12.772,24.323 10.366,10.403 23.898,16.299 40.03,16.276 v -2.757 h 0.003 z" /></g><path
     style="fill:#000000;fill-opacity:1"
     inkscape:connector-curvature="0"
     id="path47"
     d="m 448.338,7.001 h 26.323 l -44.288,53.107 48.723,82.615 H 453.391 L 415.924,76.39 394.48,102.032 v 40.692 H 372.418 V 7.001 H 394.48 V 73.519 L 448.338,7.001 z M 445.709,1.49 399.987,57.96 V 1.49 h -33.082 v 146.744 h 33.082 v -44.202 l 15.058,-18.002 35.131,62.204 h 1.606 36.955 v -0.001 L 437.092,60.654 486.428,1.491 445.709,1.49 l 0,0 z" /></svg>