<?xml version="1.0" encoding="UTF-8" standalone="no"?>
<!-- Created with Inkscape (http://www.inkscape.org/) -->

<svg
   xmlns:dc="http://purl.org/dc/elements/1.1/"
   xmlns:cc="http://creativecommons.org/ns#"
   xmlns:rdf="http://www.w3.org/1999/02/22-rdf-syntax-ns#"
   xmlns:svg="http://www.w3.org/2000/svg"
   xmlns="http://www.w3.org/2000/svg"
   xmlns:sodipodi="http://sodipodi.sourceforge.net/DTD/sodipodi-0.dtd"
   xmlns:inkscape="http://www.inkscape.org/namespaces/inkscape"
   id="svg2"
   version="1.1"
   inkscape:version="0.48.5 r10040"
   width="175.31163"
   height="87.655884"
   xml:space="preserve"
   sodipodi:docname="stadtbaeume_flyer.svg"><metadata
     id="metadata8"><rdf:RDF><cc:Work
         rdf:about=""><dc:format>image/svg+xml</dc:format><dc:type
           rdf:resource="http://purl.org/dc/dcmitype/StillImage" /><dc:title /></cc:Work></rdf:RDF></metadata><defs
     id="defs6"><clipPath
       clipPathUnits="userSpaceOnUse"
       id="clipPath16"><path
         d="m 274.961,0 566.929,0 0,595.275 -566.929,0 0,-595.275 z"
         id="path18"
         inkscape:connector-curvature="0" /></clipPath><clipPath
       clipPathUnits="userSpaceOnUse"
       id="clipPath98"><path
         d="m 138.898,44.456 116.221,0 0,165.75 -116.221,0 0,-165.75 z"
         id="path100"
         inkscape:connector-curvature="0" /></clipPath><clipPath
       clipPathUnits="userSpaceOnUse"
       id="clipPath112"><path
         d="m 19.842,44.456 113.386,0 0,165.75 -113.386,0 0,-165.75 z"
         id="path114"
         inkscape:connector-curvature="0" /></clipPath><clipPath
       clipPathUnits="userSpaceOnUse"
       id="clipPath198"><path
         d="m 0,0 841.89,0 0,595.276 L 0,595.276 0,0 z"
         id="path200"
         inkscape:connector-curvature="0" /></clipPath><clipPath
       clipPathUnits="userSpaceOnUse"
       id="clipPath222"><path
         d="m 0,0 841.89,0 0,595.276 L 0,595.276 0,0 z"
         id="path224"
         inkscape:connector-curvature="0" /></clipPath><clipPath
       clipPathUnits="userSpaceOnUse"
       id="clipPath236"><path
         d="m 0,0 841.89,0 0,595.276 L 0,595.276 0,0 z"
         id="path238"
         inkscape:connector-curvature="0" /></clipPath><clipPath
       clipPathUnits="userSpaceOnUse"
       id="clipPath324"><path
         d="m 602.362,63.581 140.25,0 0,70.125 -140.25,0 0,-70.125 z"
         id="path326"
         inkscape:connector-curvature="0" /></clipPath><clipPath
       clipPathUnits="userSpaceOnUse"
       id="clipPath404"><path
         d="m 602.362,63.581 140.25,0 0,70.125 -140.25,0 0,-70.125 z"
         id="path406"
         inkscape:connector-curvature="0" /></clipPath><clipPath
       clipPathUnits="userSpaceOnUse"
       id="clipPath428"><path
         d="m 0,0 841.89,0 0,595.276 L 0,595.276 0,0 z"
         id="path430"
         inkscape:connector-curvature="0" /></clipPath><clipPath
       clipPathUnits="userSpaceOnUse"
       id="clipPath468"><path
         d="m 0,0 841.89,0 0,595.276 L 0,595.276 0,0 z"
         id="path470"
         inkscape:connector-curvature="0" /></clipPath><clipPath
       clipPathUnits="userSpaceOnUse"
       id="clipPath494"><path
         d="m 0,0 841.89,0 0,595.276 L 0,595.276 0,0 z"
         id="path496"
         inkscape:connector-curvature="0" /></clipPath><clipPath
       clipPathUnits="userSpaceOnUse"
       id="clipPath518"><path
         d="m 0,0 841.89,0 0,595.276 L 0,595.276 0,0 z"
         id="path520"
         inkscape:connector-curvature="0" /></clipPath></defs><sodipodi:namedview
     pagecolor="#ffffff"
     bordercolor="#666666"
     borderopacity="1"
     objecttolerance="10"
     gridtolerance="10"
     guidetolerance="10"
     inkscape:pageopacity="0"
     inkscape:pageshadow="2"
     inkscape:window-width="2136"
     inkscape:window-height="1311"
     id="namedview4"
     showgrid="false"
     inkscape:zoom="11.28847"
     inkscape:cx="87.655813"
     inkscape:cy="43.82794"
     inkscape:window-x="0"
     inkscape:window-y="0"
     inkscape:window-maximized="0"
     inkscape:current-layer="g10"
     fit-margin-top="0"
     fit-margin-left="0"
     fit-margin-right="0"
     fit-margin-bottom="0" /><g
     id="g10"
     inkscape:groupmode="layer"
     inkscape:label="stadtbaeume_flyer"
     transform="matrix(1.25,0,0,-1.25,-752.95262,167.1325)"><g
       id="g310"
       transform="translate(728.2782,73.899902)"><path
         d="m 0,0 0,-4.492 -0.028,0 -2.627,4.492 -2.838,0 0,-10.01 2.599,0 0,5.209 0.028,0 3.05,-5.209 2.414,0 L 2.598,0 0,0 z"
         style="fill:#008b39;fill-opacity:1;fill-rule:nonzero;stroke:none"
         id="path312"
         inkscape:connector-curvature="0" /></g><path
       d="m 718.679,63.89 2.894,0 0,10.01 -2.894,0 0,-10.01 z"
       style="fill:#008b39;fill-opacity:1;fill-rule:nonzero;stroke:none"
       id="path314"
       inkscape:connector-curvature="0" /><g
       id="g316"
       transform="translate(710.8821,73.899902)"><path
         d="m 0,0 0,-10.01 6.954,0 0,2.302 -4.06,0 L 2.894,0 0,0 z"
         style="fill:#008b39;fill-opacity:1;fill-rule:nonzero;stroke:none"
         id="path318"
         inkscape:connector-curvature="0" /></g><g
       id="g320"><g
         id="g322"
         clip-path="url(#clipPath324)"><g
           id="g328"
           transform="translate(704.959,69.379303)"><path
             d="m 0,0 0,2.288 1.04,0 C 1.686,2.288 2.023,1.826 2.023,1.151 2.023,0.408 1.658,0 1.026,0 L 0,0 z m -2.893,-5.489 2.893,0 0,3.468 0.716,0 1.264,-3.468 3.161,0 -1.811,3.987 c 1.039,0.548 1.531,1.572 1.531,2.878 0,1.84 -1.124,3.145 -3.47,3.145 l -4.284,0 0,-10.01 z"
             style="fill:#008b39;fill-opacity:1;fill-rule:nonzero;stroke:none"
             id="path330"
             inkscape:connector-curvature="0" /></g><g
           id="g332"
           transform="translate(694.12711,63.889893)"><path
             d="m 0,0 6.953,0 0,2.302 -4.059,0 0,1.602 3.202,0 0,2.287 -3.202,0 0,1.531 4.045,0 0,2.288 L 0,10.01 0,0 z"
             style="fill:#008b39;fill-opacity:1;fill-rule:nonzero;stroke:none"
             id="path334"
             inkscape:connector-curvature="0" /></g><g
           id="g336"
           transform="translate(688.24789,69.983307)"><path
             d="m 0,0 0,1.755 1.138,0 c 0.534,0 0.871,-0.323 0.871,-0.8 C 2.009,0.407 1.7,0 1.11,0 L 0,0 z m 0,-3.875 0,1.769 1.11,0 c 0.547,0 0.913,-0.322 0.913,-0.842 0,-0.505 -0.323,-0.927 -0.871,-0.927 l -1.152,0 z m -2.879,-2.218 4.972,0 c 1.813,0 2.88,1.18 2.88,2.765 -0.014,1.081 -0.703,2.022 -1.714,2.303 l 0,0.042 c 0.984,0.309 1.63,1.236 1.63,2.373 0,1.502 -1.04,2.527 -2.866,2.527 l -4.902,0 0,-10.01 z"
             style="fill:#008b39;fill-opacity:1;fill-rule:nonzero;stroke:none"
             id="path338"
             inkscape:connector-curvature="0" /></g><g
           id="g340"
           transform="translate(676.11639,69.379303)"><path
             d="m 0,0 0,2.288 1.04,0 C 1.685,2.288 2.023,1.826 2.023,1.151 2.023,0.408 1.657,0 1.025,0 L 0,0 z m -2.894,-5.489 2.894,0 0,3.468 0.716,0 1.266,-3.468 3.16,0 -1.812,3.987 c 1.039,0.548 1.531,1.572 1.531,2.878 0,1.84 -1.125,3.145 -3.47,3.145 l -4.285,0 0,-10.01 z"
             style="fill:#008b39;fill-opacity:1;fill-rule:nonzero;stroke:none"
             id="path342"
             inkscape:connector-curvature="0" /></g><path
           d="m 670.562,74.716 -1.953,0 0,2.033 1.953,0 0,-2.033 z"
           style="fill:#008b39;fill-opacity:1;fill-rule:nonzero;stroke:none"
           id="path344"
           inkscape:connector-curvature="0" /><path
           d="m 667.683,76.75 -1.953,0 0,-2.033 1.953,0 0,2.033 z"
           style="fill:#008b39;fill-opacity:1;fill-rule:nonzero;stroke:none"
           id="path346"
           inkscape:connector-curvature="0" /><g
           id="g348"
           transform="translate(669.214,73.899994)"><path
             d="m 0,0 0,-6.613 c 0,-0.8 -0.45,-1.262 -1.082,-1.262 -0.66,0 -1.152,0.406 -1.152,1.262 l 0,6.613 -2.893,0 0,-6.696 c 0,-2.401 1.432,-3.482 3.891,-3.482 2.163,0 4.031,1.165 4.031,3.551 L 2.795,0 0,0 z"
             style="fill:#008b39;fill-opacity:1;fill-rule:nonzero;stroke:none"
             id="path350"
             inkscape:connector-curvature="0" /></g><g
           id="g352"
           transform="translate(656.2186,63.889893)"><path
             d="m 0,0 2.894,0 0,3.749 3.203,0 0,2.302 -3.203,0 0,1.671 4.046,0 0,2.288 L 0,10.01 0,0 z"
             style="fill:#008b39;fill-opacity:1;fill-rule:nonzero;stroke:none"
             id="path354"
             inkscape:connector-curvature="0" /></g><g
           id="g356"
           transform="translate(735.6584,78.8983)"><path
             d="m 0,0 6.953,0 0,2.302 -4.059,0 0,1.601 3.202,0 0,2.288 -3.202,0 0,1.531 4.045,0 0,2.288 L 0,10.01 0,0 z"
             style="fill:#008b39;fill-opacity:1;fill-rule:nonzero;stroke:none"
             id="path358"
             inkscape:connector-curvature="0" /></g><g
           id="g360"
           transform="translate(724.75369,78.8983)"><path
             d="m 0,0 2.514,0 0,6.247 0.042,0 1.363,-4.465 1.882,0 1.334,4.465 0.029,0 0,-6.247 2.529,0 0,10.01 -3.498,0 -1.279,-3.988 -0.042,0 L 3.596,10.01 0,10.01 0,0 z"
             style="fill:#008b39;fill-opacity:1;fill-rule:nonzero;stroke:none"
             id="path362"
             inkscape:connector-curvature="0" /></g><g
           id="g364"
           transform="translate(720.74519,88.908203)"><path
             d="m 0,0 0,-6.612 c 0,-0.801 -0.449,-1.264 -1.082,-1.264 -0.66,0 -1.152,0.407 -1.152,1.264 l 0,6.612 -2.893,0 0,-6.697 c 0,-2.401 1.433,-3.481 3.891,-3.481 2.164,0 4.032,1.165 4.032,3.551 L 2.796,0 0,0 z"
             style="fill:#008b39;fill-opacity:1;fill-rule:nonzero;stroke:none"
             id="path366"
             inkscape:connector-curvature="0" /></g><g
           id="g368"
           transform="translate(711.40939,82.7733)"><path
             d="m 0,0 -0.815,3.341 -0.042,0 L -1.685,0 0,0 z m -2.416,6.148 3.441,0 2.88,-10.023 -2.88,0 -0.421,1.684 -2.879,0 -0.422,-1.684 -2.669,0 2.95,10.023 z"
             style="fill:#008b39;fill-opacity:1;fill-rule:nonzero;stroke:none"
             id="path370"
             inkscape:connector-curvature="0" /></g><g
           id="g372"
           transform="translate(711.40939,82.7733)"><path
             d="m -3.146,8.998 1.952,0 0,-2.034 -1.952,0 0,2.034 z m 2.879,-2.034 1.952,0 0,2.034 -1.952,0 0,-2.034 z"
             style="fill:#008b39;fill-opacity:1;fill-rule:nonzero;stroke:none"
             id="path374"
             inkscape:connector-curvature="0" /></g><g
           id="g376"
           transform="translate(700.8051,84.991592)"><path
             d="m 0,0 0,1.754 1.137,0 c 0.534,0 0.872,-0.322 0.872,-0.8 C 2.009,0.407 1.699,0 1.109,0 L 0,0 z m 0,-3.875 0,1.769 1.109,0 c 0.548,0 0.914,-0.323 0.914,-0.843 0,-0.505 -0.324,-0.926 -0.871,-0.926 l -1.152,0 z m -2.88,-2.218 4.973,0 c 1.812,0 2.88,1.179 2.88,2.765 -0.014,1.081 -0.703,2.022 -1.714,2.302 l 0,0.043 c 0.984,0.309 1.629,1.235 1.629,2.372 0,1.502 -1.039,2.528 -2.865,2.528 l -4.903,0 0,-10.01 z"
             style="fill:#008b39;fill-opacity:1;fill-rule:nonzero;stroke:none"
             id="path378"
             inkscape:connector-curvature="0" /></g><g
           id="g380"
           transform="translate(691.6084,78.8983)"><path
             d="m 0,0 2.922,0 0,7.722 2.486,0 0,2.288 -7.895,0 0,-2.288 L 0,7.722 0,0 z"
             style="fill:#008b39;fill-opacity:1;fill-rule:nonzero;stroke:none"
             id="path382"
             inkscape:connector-curvature="0" /></g><g
           id="g384"
           transform="translate(683.65871,81.200195)"><path
             d="m 0,0 0,5.391 0.857,0 c 0.716,0 1.138,-0.435 1.138,-1.081 l 0,-3.201 C 1.995,0.561 1.672,0 0.913,0 L 0,0 z m -2.894,-2.302 4.074,0 c 2.037,0 3.736,0.955 3.736,3.313 l 0,3.566 c 0,2.19 -1.685,3.131 -3.75,3.131 l -4.06,0 0,-10.01 z"
             style="fill:#008b39;fill-opacity:1;fill-rule:nonzero;stroke:none"
             id="path386"
             inkscape:connector-curvature="0" /></g><g
           id="g388"
           transform="translate(674.38229,82.7733)"><path
             d="m 0,0 0.828,3.341 0.042,0 L 1.685,0 0,0 z m -3.681,-3.875 2.67,0 0.421,1.684 2.879,0 0.422,-1.684 2.88,0 -2.88,10.023 -3.442,0 -2.95,-10.023 z"
             style="fill:#008b39;fill-opacity:1;fill-rule:nonzero;stroke:none"
             id="path390"
             inkscape:connector-curvature="0" /></g><g
           id="g392"
           transform="translate(666.00591,78.8983)"><path
             d="m 0,0 2.922,0 0,7.722 2.487,0 0,2.288 -7.895,0 0,-2.288 L 0,7.722 0,0 z"
             style="fill:#008b39;fill-opacity:1;fill-rule:nonzero;stroke:none"
             id="path394"
             inkscape:connector-curvature="0" /></g><g
           id="g396"
           transform="translate(661.2196,84.809006)"><path
             d="m 0,0 -1.447,0.547 c -0.632,0.239 -0.983,0.421 -0.983,0.884 0,0.436 0.351,0.716 0.983,0.716 0.534,0 1.321,-0.435 1.756,-0.912 l 1.503,1.741 c -0.814,0.926 -2.135,1.277 -3.371,1.277 -2.261,0 -3.61,-1.445 -3.61,-3.215 0,-1.417 0.716,-2.358 2.093,-2.906 l 1.546,-0.617 c 0.477,-0.197 0.8,-0.351 0.8,-0.787 0,-0.42 -0.477,-0.716 -1.082,-0.716 -0.857,0 -1.601,0.632 -2.121,1.166 l -1.63,-1.727 c 0.886,-1.039 2.346,-1.53 3.835,-1.53 1.953,0 3.835,1.095 3.835,3.313 C 2.107,-1.488 1.419,-0.548 0,0"
             style="fill:#008b39;fill-opacity:1;fill-rule:nonzero;stroke:none"
             id="path398"
             inkscape:connector-curvature="0" /></g></g></g><g
       id="g400"><g
         id="g402"
         clip-path="url(#clipPath404)"><g
           id="g408"
           transform="translate(633.70309,83.809296)"><path
             d="M 0,0 1.533,6.047 C 0.729,5.81 -0.072,5.584 -0.864,5.372 L -2.402,1.269 -3.836,4.626 C -4.968,4.359 -6.069,4.118 -7.124,3.902 L -5.283,-0.6 -6.164,-18.759 c -0.08,-1.269 0.641,-1.469 2.882,-1.469 0.72,0 2.802,0.067 3.682,0.334 C 0.16,-9.28 0,-2.736 0,-1.001 L 0,0 z"
             style="fill:#591f0b;fill-opacity:1;fill-rule:nonzero;stroke:none"
             id="path410"
             inkscape:connector-curvature="0" /></g><g
           id="g412"
           transform="translate(655.2887,118.3244)"><path
             d="m 0,0 c 2.027,2.352 4.378,4.405 6.358,6.8 1.579,1.909 3.468,4.645 1.736,7.047 -0.647,0.898 -1.55,1.802 -2.751,1.462 C 4.52,15.077 3.91,14.343 3.452,13.662 2.707,12.556 2.164,11.281 1.774,10.008 c -0.446,1.651 -1.547,3.242 -3.02,4.124 -1.103,0.661 -2.9,1.262 -3.097,-0.559 -0.097,-0.905 0.106,-1.85 0.31,-2.727 C -3.16,7.111 -1.605,3.476 0,0"
             style="fill:#db0029;fill-opacity:1;fill-rule:nonzero;stroke:none"
             id="path414"
             inkscape:connector-curvature="0" /></g><g
           id="g416"
           transform="translate(645.35699,109.1288)"><path
             d="m 0,0 c 3.442,6.724 2.321,9.126 2.321,9.126 0,0 -12.007,6.964 -19.692,5.923 -0.946,-0.291 -3.017,-1.558 -5.123,-3.012 -0.329,0.065 -0.6,0.112 -0.858,0.152 -0.259,0.04 -0.669,-0.039 -0.669,-0.039 -4.384,-1.285 -7.125,-2.968 -7.946,-4.885 l -0.02,-0.048 0.015,-0.049 c 0.099,-0.319 2.379,-7.644 3.971,-10.168 -3.525,-0.35 -5.462,-1.516 -5.545,-1.566 l -0.069,-0.043 0.002,-0.081 c 0.452,-14.281 9.478,-15.823 13.338,-15.823 0.506,0 1.025,0.024 1.544,0.071 1.559,0.147 3.04,0.323 4.448,0.524 0.002,10e-4 0.003,10e-4 0.005,0.002 10.322,1.582 24.82,6.518 24.604,18.235 0,0 -2.241,1.441 -10.326,1.681"
             style="fill:#37aa32;fill-opacity:1;fill-rule:nonzero;stroke:none"
             id="path418"
             inkscape:connector-curvature="0" /></g><g
           id="g420"
           transform="translate(640.4951,91.465195)"><path
             d="M 0,0 C -0.122,0 -0.32,-0.105 -0.423,-0.138 -4.704,-1.54 -9.9,-2.262 -13.882,-2.639 c -7.044,-0.64 -14.329,2.969 -14.729,15.617 0,0 2.035,1.247 5.718,1.567 -1.602,2.321 -4.083,10.328 -4.083,10.328 0.406,0.948 1.801,3.143 8.487,4.98 -1.605,0.257 -3.26,0.356 -4.674,0.165 -2.082,-0.641 -9.607,-6.004 -10.967,-7.685 0,0 2.481,-8.005 4.082,-10.326 -3.682,-0.32 -8.085,-1.761 -8.085,-1.761 0.401,-12.648 7.685,-16.277 14.729,-15.637 3.694,0.349 14.319,1.924 23.9,5.57 L 0,0 z"
             style="fill:#008b39;fill-opacity:1;fill-rule:nonzero;stroke:none"
             id="path422"
             inkscape:connector-curvature="0" /></g></g></g></g></svg>