<?xml version="1.0" encoding="UTF-8" standalone="no"?>
<!-- Generator: Adobe Illustrator 16.0.4, SVG Export Plug-In . SVG Version: 6.00 Build 0)  -->

<svg
   xmlns:dc="http://purl.org/dc/elements/1.1/"
   xmlns:cc="http://creativecommons.org/ns#"
   xmlns:rdf="http://www.w3.org/1999/02/22-rdf-syntax-ns#"
   xmlns:svg="http://www.w3.org/2000/svg"
   xmlns="http://www.w3.org/2000/svg"
   xmlns:xlink="http://www.w3.org/1999/xlink"
   xmlns:sodipodi="http://sodipodi.sourceforge.net/DTD/sodipodi-0.dtd"
   xmlns:inkscape="http://www.inkscape.org/namespaces/inkscape"
   version="1.1"
   id="Ebene_1"
   x="0px"
   y="0px"
   width="211.742"
   height="105.712"
   viewBox="35.161 22.586 211.742 105.712"
   enable-background="new 35.161 22.586 212 136"
   xml:space="preserve"
   inkscape:version="0.48.5 r10040"
   sodipodi:docname="wj2015.svg"><metadata
     id="metadata202"><rdf:RDF><cc:Work
         rdf:about=""><dc:format>image/svg+xml</dc:format><dc:type
           rdf:resource="http://purl.org/dc/dcmitype/StillImage" /></cc:Work></rdf:RDF></metadata><defs
     id="defs200"><linearGradient
       inkscape:collect="always"
       xlink:href="#SVGID_5_"
       id="linearGradient3356"
       gradientUnits="userSpaceOnUse"
       gradientTransform="matrix(0,25.8026,-25.8026,0,-4402.543,35177.305)"
       x1="-1360.2615"
       y1="-176.1394"
       x2="-1357.2512"
       y2="-176.1394" /></defs><sodipodi:namedview
     pagecolor="#ffffff"
     bordercolor="#666666"
     borderopacity="1"
     objecttolerance="10"
     gridtolerance="10"
     guidetolerance="10"
     inkscape:pageopacity="0"
     inkscape:pageshadow="2"
     inkscape:window-width="704"
     inkscape:window-height="800"
     id="namedview198"
     showgrid="false"
     fit-margin-top="0"
     fit-margin-left="0"
     fit-margin-right="0"
     fit-margin-bottom="0"
     inkscape:zoom="1.7352941"
     inkscape:cx="105.871"
     inkscape:cy="67.518"
     inkscape:window-x="0"
     inkscape:window-y="0"
     inkscape:window-maximized="0"
     inkscape:current-layer="Ebene_1" /><path
     d="m 42.819,127.764 c -3.928,0 -7.128,-3.2 -7.128,-7.129 V 30.244 c 0,-3.93 3.201,-7.122 7.128,-7.122 h 196.426 c 3.929,0 7.126,3.192 7.126,7.122 v 90.391 c 0,3.929 -3.197,7.129 -7.126,7.129 H 42.819"
     id="path7"
     inkscape:connector-curvature="0"
     style="fill:#19181b" /><path
     d="m 239.245,23.656 c 3.635,0 6.592,2.953 6.592,6.588 v 90.396 c 0,3.627 -2.957,6.587 -6.592,6.587 H 42.819 c -3.635,0 -6.591,-2.96 -6.591,-6.587 V 30.244 c 0,-3.636 2.956,-6.588 6.591,-6.588 h 196.426 m 0,-1.07 H 42.819 c -4.223,0 -7.658,3.434 -7.658,7.658 v 90.396 c 0,4.219 3.436,7.658 7.658,7.658 h 196.426 c 4.221,0 7.658,-3.439 7.658,-7.658 V 30.244 c 0,-4.224 -3.438,-7.658 -7.658,-7.658"
     id="path9"
     inkscape:connector-curvature="0"
     style="fill:#19181b" /><path
     d="M 245.51,47.838 V 30.244 c 0,-3.455 -2.809,-6.263 -6.266,-6.263 h -43.497 v 23.857 h 49.763 z"
     id="path11"
     inkscape:connector-curvature="0"
     style="fill:#ffffff" /><polygon
     points="45.824,66.66 47.283,61.626 48.45,61.626 49.913,66.66 51.154,61.626 52.782,61.626 50.641,69.61 49.34,69.61 47.872,64.767 46.396,69.61 45.095,69.61 42.966,61.626 44.59,61.626 "
     id="polygon13"
     style="fill:#ffffff"
     transform="translate(-0.129,-29.806)" /><path
     d="m 56.672,31.773 h 1.493 v 1.188 h -1.493 v -1.188 z m 0.021,2.188 h 1.46 v 5.846 h -1.46 v -5.846 z"
     id="path15"
     inkscape:connector-curvature="0"
     style="fill:#ffffff" /><path
     d="m 64.853,39.874 c -0.917,0 -1.752,-0.102 -2.49,-0.843 l 0.955,-0.949 c 0.481,0.479 1.108,0.546 1.555,0.546 0.505,0 1.035,-0.164 1.035,-0.604 0,-0.291 -0.157,-0.494 -0.62,-0.538 l -0.917,-0.089 c -1.053,-0.103 -1.71,-0.561 -1.71,-1.64 0,-1.212 1.068,-1.863 2.256,-1.863 0.913,0 1.676,0.157 2.235,0.686 l -0.896,0.911 c -0.339,-0.306 -0.854,-0.396 -1.36,-0.396 -0.584,0 -0.832,0.271 -0.832,0.561 0,0.216 0.09,0.463 0.606,0.506 l 0.923,0.091 c 1.157,0.113 1.741,0.729 1.741,1.717 10e-4,1.289 -1.098,1.904 -2.481,1.904"
     id="path17"
     inkscape:connector-curvature="0"
     style="fill:#ffffff" /><path
     d="m 73.557,39.874 c -0.917,0 -1.748,-0.102 -2.489,-0.843 l 0.954,-0.949 c 0.483,0.479 1.111,0.546 1.559,0.546 0.503,0 1.036,-0.164 1.036,-0.604 0,-0.291 -0.159,-0.494 -0.618,-0.538 l -0.923,-0.089 c -1.053,-0.103 -1.706,-0.561 -1.706,-1.64 0,-1.212 1.066,-1.863 2.259,-1.863 0.905,0 1.67,0.157 2.229,0.686 l -0.896,0.911 c -0.339,-0.306 -0.851,-0.396 -1.357,-0.396 -0.582,0 -0.835,0.271 -0.835,0.561 0,0.216 0.094,0.463 0.61,0.506 l 0.919,0.091 c 1.157,0.113 1.74,0.729 1.74,1.717 0.001,1.289 -1.099,1.904 -2.482,1.904"
     id="path19"
     inkscape:connector-curvature="0"
     style="fill:#ffffff" /><path
     d="m 81.557,37.341 c 0,0.75 0.464,1.302 1.282,1.302 0.639,0 0.953,-0.18 1.323,-0.552 l 0.889,0.867 c -0.596,0.592 -1.171,0.917 -2.223,0.917 -1.382,0 -2.706,-0.627 -2.706,-2.996 0,-1.906 1.035,-2.984 2.548,-2.984 1.629,0 2.549,1.192 2.549,2.796 v 0.651 l -3.662,-10e-4 0,0 z m 2.089,-1.631 c -0.155,-0.346 -0.483,-0.604 -0.978,-0.604 -0.493,0 -0.817,0.259 -0.975,0.604 -0.09,0.215 -0.122,0.372 -0.137,0.631 H 83.78 C 83.77,36.082 83.738,35.925 83.646,35.71"
     id="path21"
     inkscape:connector-curvature="0"
     style="fill:#ffffff" /><path
     d="M 93.115,39.804 V 36.27 c 0,-0.796 -0.5,-1.063 -0.963,-1.063 -0.46,0 -0.976,0.267 -0.976,1.063 v 3.534 h -1.46 v -5.843 h 1.425 v 0.541 c 0.384,-0.404 0.921,-0.608 1.462,-0.608 0.583,0 1.052,0.192 1.376,0.514 0.47,0.475 0.601,1.024 0.601,1.667 v 3.729 l -1.465,0 0,0 z"
     id="path23"
     inkscape:connector-curvature="0"
     style="fill:#ffffff" /><path
     d="m 101.219,39.874 c -0.922,0 -1.752,-0.102 -2.494,-0.843 l 0.958,-0.949 c 0.479,0.479 1.11,0.546 1.56,0.546 0.504,0 1.033,-0.164 1.033,-0.604 0,-0.291 -0.163,-0.494 -0.621,-0.538 l -0.917,-0.089 c -1.054,-0.103 -1.706,-0.561 -1.706,-1.64 0,-1.212 1.065,-1.863 2.253,-1.863 0.912,0 1.677,0.157 2.234,0.686 l -0.897,0.911 c -0.337,-0.306 -0.851,-0.396 -1.356,-0.396 -0.586,0 -0.834,0.271 -0.834,0.561 0,0.216 0.093,0.463 0.609,0.506 l 0.92,0.091 c 1.153,0.113 1.741,0.729 1.741,1.717 0.001,1.289 -1.1,1.904 -2.483,1.904"
     id="path25"
     inkscape:connector-curvature="0"
     style="fill:#ffffff" /><path
     d="m 110.398,39.874 c -1.167,0 -2.613,-0.624 -2.613,-2.996 0,-2.369 1.447,-2.984 2.613,-2.984 0.809,0 1.416,0.247 1.933,0.785 l -0.988,0.987 c -0.306,-0.322 -0.564,-0.459 -0.945,-0.459 -0.349,0 -0.616,0.125 -0.832,0.385 -0.223,0.278 -0.323,0.674 -0.323,1.286 0,0.62 0.1,1.02 0.323,1.302 0.216,0.258 0.483,0.38 0.832,0.38 0.38,0 0.639,-0.129 0.945,-0.459 l 0.988,0.976 c -0.518,0.539 -1.123,0.797 -1.933,0.797"
     id="path27"
     inkscape:connector-curvature="0"
     style="fill:#ffffff" /><path
     d="m 119.971,39.804 v -3.561 c 0,-0.776 -0.494,-1.036 -0.955,-1.036 -0.457,0 -0.946,0.267 -0.946,1.036 v 3.561 h -1.454 V 31.82 h 1.454 v 2.682 c 0.395,-0.404 0.89,-0.608 1.406,-0.608 1.28,0 1.954,0.898 1.954,2.13 v 3.781 h -1.459 z"
     id="path29"
     inkscape:connector-curvature="0"
     style="fill:#ffffff" /><path
     d="m 129.147,39.804 v -0.502 c -0.389,0.393 -0.76,0.565 -1.436,0.565 -0.661,0 -1.143,-0.173 -1.488,-0.518 -0.314,-0.325 -0.488,-0.8 -0.488,-1.313 0,-0.93 0.64,-1.693 2,-1.693 h 1.382 v -0.294 c 0,-0.639 -0.314,-0.917 -1.094,-0.917 -0.559,0 -0.816,0.133 -1.118,0.481 L 125.976,34.7 c 0.571,-0.623 1.129,-0.804 2.106,-0.804 1.639,0 2.489,0.699 2.489,2.067 v 3.843 l -1.424,-0.002 0,0 z m -0.029,-2.467 h -1.159 c -0.527,0 -0.818,0.246 -0.818,0.667 0,0.404 0.27,0.67 0.841,0.67 0.406,0 0.665,-0.031 0.918,-0.282 0.163,-0.141 0.218,-0.38 0.218,-0.737 v -0.318 z"
     id="path31"
     inkscape:connector-curvature="0"
     style="fill:#ffffff" /><path
     d="m 136.936,35.239 v 4.565 h -1.455 v -4.565 h -0.61 V 34.13 h 0.611 v -0.729 c 0,-0.831 0.513,-1.67 1.702,-1.67 h 0.828 v 1.236 h -0.568 c -0.35,0 -0.506,0.188 -0.506,0.525 v 0.639 h 1.074 v 1.109 h -1.076 z"
     id="path33"
     inkscape:connector-curvature="0"
     style="fill:#ffffff" /><path
     d="m 144.122,39.804 c -1.189,0 -1.693,-0.835 -1.693,-1.671 v -2.894 h -0.622 V 34.13 h 0.622 v -1.729 h 1.458 v 1.729 h 1.028 v 1.109 h -1.028 v 2.804 c 0,0.341 0.152,0.533 0.499,0.533 h 0.529 v 1.228 h -0.793 z"
     id="path35"
     inkscape:connector-curvature="0"
     style="fill:#ffffff" /><path
     d="m 151.311,39.874 c -0.919,0 -1.749,-0.102 -2.494,-0.843 l 0.961,-0.949 c 0.479,0.479 1.107,0.546 1.555,0.546 0.506,0 1.035,-0.164 1.035,-0.604 0,-0.291 -0.158,-0.494 -0.617,-0.538 l -0.921,-0.089 c -1.051,-0.103 -1.702,-0.561 -1.702,-1.64 0,-1.212 1.062,-1.863 2.253,-1.863 0.907,0 1.671,0.157 2.234,0.686 l -0.899,0.911 c -0.336,-0.306 -0.854,-0.396 -1.359,-0.396 -0.582,0 -0.825,0.271 -0.825,0.561 0,0.216 0.084,0.463 0.601,0.506 l 0.921,0.091 c 1.157,0.113 1.738,0.729 1.738,1.717 0,1.289 -1.096,1.904 -2.481,1.904"
     id="path37"
     inkscape:connector-curvature="0"
     style="fill:#ffffff" /><path
     d="m 157.922,41.992 h -0.83 V 40.76 h 0.562 c 0.368,0 0.516,-0.18 0.516,-0.529 v -6.27 h 1.459 v 6.364 c -0.002,0.831 -0.508,1.667 -1.707,1.667 m 0.223,-10.219 h 1.494 v 1.188 h -1.494 v -1.188 z"
     id="path39"
     inkscape:connector-curvature="0"
     style="fill:#ffffff" /><path
     d="m 167.404,39.804 v -0.502 c -0.396,0.393 -0.761,0.565 -1.437,0.565 -0.661,0 -1.144,-0.173 -1.494,-0.518 -0.312,-0.325 -0.482,-0.8 -0.482,-1.313 0,-0.93 0.641,-1.693 2,-1.693 h 1.382 v -0.294 c 0,-0.639 -0.313,-0.917 -1.09,-0.917 -0.563,0 -0.821,0.133 -1.122,0.481 L 164.226,34.7 c 0.577,-0.623 1.136,-0.804 2.111,-0.804 1.641,0 2.489,0.699 2.489,2.067 v 3.843 l -1.422,-0.002 0,0 z m -0.031,-2.467 h -1.159 c -0.527,0 -0.822,0.246 -0.822,0.667 0,0.404 0.271,0.67 0.846,0.67 0.406,0 0.666,-0.031 0.92,-0.282 0.157,-0.141 0.216,-0.38 0.216,-0.737 v -0.318 z"
     id="path41"
     inkscape:connector-curvature="0"
     style="fill:#ffffff" /><path
     d="m 176.907,39.804 v -3.561 c 0,-0.776 -0.494,-1.036 -0.952,-1.036 -0.46,0 -0.942,0.267 -0.942,1.036 v 3.561 h -1.458 V 31.82 h 1.458 v 2.682 c 0.395,-0.404 0.883,-0.608 1.4,-0.608 1.279,0 1.953,0.898 1.953,2.13 v 3.781 h -1.459 z"
     id="path43"
     inkscape:connector-curvature="0"
     style="fill:#ffffff" /><path
     d="m 186.27,35.557 c -0.229,-0.228 -0.418,-0.349 -0.775,-0.349 -0.447,0 -0.947,0.337 -0.947,1.079 v 3.521 h -1.455 v -5.846 h 1.426 v 0.564 c 0.282,-0.341 0.842,-0.632 1.471,-0.632 0.57,0 0.977,0.145 1.378,0.549 l -1.098,1.114 z"
     id="path45"
     inkscape:connector-curvature="0"
     style="fill:#ffffff" /><path
     d="m 209.801,39.992 v -1.373 h -3.232 l 2.337,-2.717 c 0.58,-0.671 0.895,-1.107 0.895,-1.918 0,-1.506 -1.056,-2.432 -2.542,-2.432 -1.431,0 -2.549,0.914 -2.549,2.44 h 1.529 c 0,-0.808 0.518,-1.067 1.02,-1.067 0.65,0 1.016,0.423 1.016,1.047 0,0.389 -0.13,0.647 -0.436,1.012 l -3.129,3.636 v 1.373 h 5.091 z m 9.041,-2.424 v -3.525 c 0,-1.6 -1.174,-2.489 -2.539,-2.489 -1.365,0 -2.553,0.89 -2.553,2.489 v 3.525 c 0,1.6 1.188,2.494 2.553,2.494 1.365,0 2.539,-0.894 2.539,-2.494 m -1.527,-0.008 c 0,0.706 -0.406,1.13 -1.012,1.13 -0.613,0 -1.023,-0.424 -1.023,-1.13 v -3.494 c 0,-0.706 0.41,-1.141 1.023,-1.141 0.605,0 1.012,0.435 1.012,1.141 v 3.494 z m 9.318,2.432 V 31.62 h -1.523 l -1.706,1.481 v 1.647 l 1.706,-1.479 v 6.721 h 1.523 z m 10.451,-2.82 c 0,-0.788 -0.094,-1.58 -0.747,-2.234 -0.341,-0.342 -0.87,-0.565 -1.566,-0.565 -0.562,0 -1.033,0.211 -1.257,0.422 v -1.799 h 3.388 V 31.62 h -4.773 v 4.725 h 1.398 c 0.105,-0.33 0.388,-0.679 1.012,-0.679 0.74,0 1.022,0.537 1.022,1.506 0,0.53 -0.059,0.978 -0.329,1.248 -0.189,0.185 -0.435,0.271 -0.729,0.271 -0.637,0 -0.941,-0.376 -1.024,-1.035 h -1.528 c 0.047,0.611 0.167,1.224 0.684,1.737 0.363,0.365 0.998,0.671 1.869,0.671 0.869,0 1.47,-0.306 1.846,-0.683 0.61,-0.614 0.734,-1.272 0.734,-2.209"
     id="path161"
     inkscape:connector-curvature="0"
     style="fill:#19181b" /><g
     id="g163"
     transform="translate(-0.129,-29.806)"><g
       id="g165"><defs
         id="defs167"><path
           inkscape:connector-curvature="0"
           d="m 42.948,53.787 c -3.453,0 -6.264,2.808 -6.264,6.263 v 90.391 c 0,3.458 2.81,6.267 6.264,6.267 h 196.426 c 3.455,0 6.265,-2.809 6.265,-6.267 V 60.05 c 0,-3.455 -2.81,-6.263 -6.265,-6.263 l -196.426,0 0,0 z"
           id="SVGID_1_" /></defs><clipPath
         id="SVGID_2_"><use
           height="136"
           width="212"
           y="0"
           x="0"
           style="overflow:visible"
           id="use171"
           overflow="visible"
           xlink:href="#SVGID_1_" /></clipPath><rect
         style="fill:#fbc100"
         id="rect173"
         height="77.707001"
         width="231.91901"
         clip-path="url(#SVGID_2_)"
         y="79.035004"
         x="22.452" /></g></g><g
     id="g175"
     transform="translate(-0.129,-29.806)"><g
       id="g177"><defs
         id="defs179"><path
           inkscape:connector-curvature="0"
           d="m 168.302,79.039 c -6.347,2.703 -12.817,5.65 -18.675,8.646 -35.85,18.319 -97.909,59.147 -110.655,67.597 0.879,0.719 1.959,1.208 3.139,1.369 0,0 0,0 0.004,0 0.019,0.004 0.041,0.008 0.064,0.008 0,0 0.006,0 0.012,0 0.018,0.004 0.037,0.008 0.057,0.008 0.004,0 0.008,0 0.014,0 0.018,0.004 0.042,0.008 0.059,0.008 h 0.004 c 0.042,0.005 0.078,0.009 0.118,0.012 0.006,0 0.012,0 0.018,0 0.012,0 0.024,0.005 0.041,0.005 0.008,0 0.018,0.004 0.029,0.004 0.011,0 0.029,0 0.041,0 0.012,0 0.027,0 0.035,0.004 0.016,0 0.024,0 0.04,0 0.012,0 0.025,0 0.037,0 0.012,0 0.023,0 0.038,0 0.012,0.005 0.027,0.005 0.043,0.005 0.008,0 0.019,0 0.03,0 0.019,0 0.037,0.004 0.052,0.004 0.008,0 0.016,0 0.023,0 0.025,0 0.055,0 0.077,0 h 196.426 c 3.455,0 6.265,-2.809 6.265,-6.267 V 79.039 h -77.336 z"
           id="SVGID_3_" /></defs><clipPath
         id="SVGID_4_"><use
           height="136"
           width="212"
           y="0"
           x="0"
           style="overflow:visible"
           id="use183"
           overflow="visible"
           xlink:href="#SVGID_3_" /></clipPath><linearGradient
         gradientTransform="matrix(0,25.8026,-25.8026,0,-4402.543,35177.305)"
         y2="-176.1394"
         x2="-1357.2512"
         y1="-176.1394"
         x1="-1360.2615"
         gradientUnits="userSpaceOnUse"
         id="SVGID_5_"><stop
           id="stop186"
           style="stop-color:#F9B800"
           offset="0" /><stop
           id="stop188"
           style="stop-color:#F9B800"
           offset="0.2857" /><stop
           id="stop190"
           style="stop-color:#FBC100"
           offset="1" /></linearGradient><rect
         style="fill:url(#linearGradient3356)"
         id="rect192"
         height="77.667999"
         width="206.66701"
         clip-path="url(#SVGID_4_)"
         y="79.039001"
         x="38.972" /></g></g><g
     id="g194"
     transform="translate(-0.129,-29.806)"><path
       style="fill:#19181b"
       inkscape:connector-curvature="0"
       id="path196"
       d="m 50.76,125.052 h 14.298 v -3.208 H 54.877 l 10.181,-16.63 v -2.545 h -13.89 v 3.019 h 9.744 L 50.76,122.219 v 2.833 z m 17.367,-5.344 c 0,3.614 2.831,5.536 5.342,5.536 1.668,0 3.111,-0.632 4.118,-1.892 h 0.064 v 1.699 h 3.205 v -15.939 h -3.205 v 9.496 c 0,2.169 -1.354,3.423 -3.145,3.423 -1.823,0 -3.171,-1.255 -3.171,-3.423 v -9.496 h -3.207 l -0.001,10.596 0,0 z m 16.841,5.344 h 3.205 v -4.588 l 2.517,-2.863 4.241,7.451 h 4.022 l -6.251,-9.713 5.5,-6.228 h -3.834 l -6.133,7.481 h -0.06 v -13.924 h -3.206 l -10e-4,22.384 0,0 z m 16.241,-5.344 c 0,3.614 2.828,5.536 5.347,5.536 1.664,0 3.11,-0.632 4.116,-1.892 h 0.065 v 1.699 h 3.205 v -15.939 h -3.205 v 9.496 c 0,2.169 -1.354,3.423 -3.146,3.423 -1.819,0 -3.172,-1.255 -3.172,-3.423 v -9.496 h -3.208 l -0.002,10.596 0,0 z m 16.844,5.344 h 3.205 v -9.493 c 0,-2.17 1.35,-3.427 3.177,-3.427 1.792,0 3.141,1.259 3.141,3.427 v 9.493 h 3.206 v -10.596 c 0,-3.611 -2.83,-5.533 -5.312,-5.533 -1.7,0 -3.146,0.632 -4.148,1.891 h -0.063 v -1.701 h -3.205 v 15.939 z m 17.128,0 h 3.209 v -13.486 h 3.202 v -2.453 h -3.202 v -2.103 c 0,-0.977 0.343,-1.321 1.38,-1.321 h 1.822 v -3.02 h -2.071 c -2.484,0 -4.34,1.354 -4.34,4.341 v 2.103 h -1.601 v 2.453 h 1.601 v 13.486 z m 9.704,-15.939 h -1.602 v 2.453 h 1.602 v 9.557 c 0,2.514 1.637,3.929 3.865,3.929 h 1.664 v -3.02 h -1.189 c -0.786,0 -1.134,-0.31 -1.134,-1.192 v -9.273 h 2.323 v -2.453 h -2.323 v -4.839 h -3.206 v 4.838 z m 7.618,13.267 c 2.048,1.918 4.436,2.863 7.012,2.863 3.711,0 6.604,-1.793 6.604,-4.909 0,-2.546 -1.322,-4.557 -4.623,-4.776 l -2.64,-0.188 c -1.604,-0.125 -2.105,-0.815 -2.105,-1.509 0,-1.104 0.688,-1.919 2.734,-1.919 1.729,0 3.015,0.601 4.272,1.479 l 1.984,-2.33 c -1.574,-1.317 -3.456,-2.168 -6.257,-2.168 -3.363,0 -5.94,1.667 -5.94,4.91 0,2.729 1.947,4.3 4.588,4.52 l 2.829,0.255 c 1.1,0.095 1.946,0.435 1.946,1.573 0,1.35 -1.317,2.039 -3.141,2.039 -2.14,0 -3.646,-0.689 -5.033,-2.039 l -2.23,2.199 z m 15.681,0 c 2.041,1.918 4.429,2.863 7.007,2.863 3.714,0 6.6,-1.793 6.6,-4.909 0,-2.546 -1.319,-4.557 -4.62,-4.776 l -2.64,-0.188 c -1.603,-0.125 -2.106,-0.815 -2.106,-1.509 0,-1.104 0.694,-1.919 2.734,-1.919 1.729,0 3.018,0.601 4.276,1.479 l 1.981,-2.33 c -1.576,-1.317 -3.461,-2.168 -6.258,-2.168 -3.364,0 -5.94,1.667 -5.94,4.91 0,2.729 1.949,4.3 4.588,4.52 l 2.829,0.255 c 1.099,0.095 1.951,0.435 1.951,1.573 0,1.35 -1.322,2.039 -3.146,2.039 -2.137,0 -3.646,-0.689 -5.028,-2.039 l -2.228,2.199 z M 185.6,109.113 h -1.605 v 2.453 h 1.605 v 9.557 c 0,2.514 1.635,3.929 3.868,3.929 h 1.663 v -3.02 h -1.196 c -0.782,0 -1.13,-0.31 -1.13,-1.192 v -9.273 h 2.326 v -2.453 h -2.326 v -4.839 H 185.6 v 4.838 z m 17.405,15.939 h 3.205 v -10.878 c 0,-3.929 -2.705,-5.251 -6.635,-5.251 -2.389,0 -4.153,0.632 -5.377,2.329 l 2.513,1.917 c 0.57,-0.913 1.353,-1.227 3.017,-1.227 2.3,0 3.276,0.533 3.276,2.043 v 1.668 h -4.435 c -3.43,0 -5.188,2.168 -5.188,4.717 0,2.764 2.076,4.874 5.626,4.874 2.173,0 3.271,-0.507 3.932,-1.608 h 0.064 l 0.002,1.416 0,0 z m 0,-5.596 c 0,2.485 -0.918,2.765 -3.588,2.765 -2.168,0 -3.019,-0.945 -3.019,-2.013 0,-1.165 0.884,-1.918 2.768,-1.918 h 3.839 v 1.166 z m 16.603,5.596 h 3.206 v -22.383 h -3.206 v 8.145 c -1.193,-1.134 -2.482,-1.891 -4.116,-1.891 -1.947,0 -3.364,0.886 -4.27,2.074 -0.885,1.134 -1.136,2.172 -1.136,6.066 0,3.934 0.251,4.968 1.136,6.098 0.905,1.195 2.323,2.082 4.27,2.082 1.635,0 3.11,-0.757 4.116,-1.859 v 1.668 z m -3.14,-12.921 c 2.985,0 3.141,2.643 3.141,4.933 0,2.329 -0.154,4.968 -3.141,4.968 -3.018,0 -3.174,-2.481 -3.174,-4.968 0,-2.45 0.156,-4.933 3.174,-4.933 m 10.517,-3.018 h -1.603 v 2.453 h 1.603 v 9.557 c 0,2.514 1.635,3.929 3.867,3.929 h 1.668 v -3.02 h -1.201 c -0.782,0 -1.129,-0.31 -1.129,-1.192 v -9.273 h 2.329 v -2.453 h -2.329 v -4.839 h -3.205 v 4.838 l 0,0 z" /></g></svg>